<?xml version="1.0" encoding="utf-8"?>
<!-- Generator: Adobe Illustrator 25.2.1, SVG Export Plug-In . SVG Version: 6.00 Build 0)  -->
<svg version="1.1" id="Capa_1" xmlns="http://www.w3.org/2000/svg" xmlns:xlink="http://www.w3.org/1999/xlink" x="0px" y="0px"
	 viewBox="0 0 23.6 23.6" style="enable-background:new 0 0 23.6 23.6;" xml:space="preserve">
<style type="text/css">
	.st0{fill:#592e3a;}
	.st1{fill:none;}
	.st2{enable-background:new    ;}
	.st3{fill:#FFFFFF;}
</style>
<circle class="st0" cx="11.8" cy="11.8" r="11.8"/>
<rect x="6.2" y="5.1" class="st1" width="11.2" height="13.3"/>
<g class="st2">
	<path class="st3" d="M3.7,9.5V8C4.4,8,4.9,8,5.2,7.9C5.7,7.8,6,7.6,6.3,7.3c0.2-0.2,0.3-0.5,0.4-0.8C6.8,6.3,6.8,6.1,6.8,6h1.9
		v11.3H6.4V9.5H3.7z"/>
	<path class="st3" d="M19,7.5c0.6,1,0.9,2.5,0.9,4.3s-0.3,3.3-0.9,4.3c-0.6,1-1.6,1.5-3,1.5c-1.4,0-2.5-0.5-3-1.5
		c-0.6-1-0.9-2.5-0.9-4.3s0.3-3.3,0.9-4.3c0.6-1,1.6-1.5,3-1.5C17.4,6,18.4,6.5,19,7.5z M14.6,14.8c0.2,0.7,0.7,1,1.3,1
		c0.7,0,1.1-0.3,1.3-1c0.2-0.7,0.3-1.7,0.3-3c0-1.4-0.1-2.4-0.3-3c-0.2-0.7-0.6-1-1.3-1c-0.7,0-1.1,0.3-1.3,1
		c-0.2,0.7-0.3,1.7-0.3,3C14.3,13.1,14.4,14.1,14.6,14.8z"/>
</g>
</svg>
