<?xml version="1.0" encoding="utf-8"?>
<!-- Generator: Adobe Illustrator 25.2.1, SVG Export Plug-In . SVG Version: 6.00 Build 0)  -->
<svg version="1.1" id="Capa_1" xmlns="http://www.w3.org/2000/svg" xmlns:xlink="http://www.w3.org/1999/xlink" x="0px" y="0px"
	 viewBox="0 0 23.6 23.6" style="enable-background:new 0 0 23.6 23.6;" xml:space="preserve">
<style type="text/css">
	.st0{fill:#592e3a;}
	.st1{fill:none;}
	.st2{enable-background:new    ;}
	.st3{fill:#FFFFFF;}
</style>
<circle class="st0" cx="11.8" cy="11.8" r="11.8"/>
<rect x="6.2" y="5.1" class="st1" width="11.2" height="13.3"/>
<g class="st2">
	<path class="st3" d="M8,15.7c0.4-0.8,1.2-1.8,2.5-2.7c1.2-0.8,1.9-1.4,2.2-1.8c0.5-0.6,0.8-1.2,0.8-1.8c0-0.5-0.1-1-0.4-1.3
		c-0.3-0.4-0.7-0.5-1.3-0.5c-0.8,0-1.3,0.3-1.6,0.9C10.1,8.7,10,9.2,10,9.9H7.6c0-1.1,0.2-2,0.6-2.6C8.8,6,10,5.4,11.7,5.4
		c1.3,0,2.4,0.4,3.2,1.1c0.8,0.7,1.2,1.7,1.2,3c0,0.9-0.3,1.8-0.8,2.5c-0.4,0.5-1,1-1.8,1.6l-1,0.7c-0.6,0.4-1.1,0.8-1.3,1
		s-0.4,0.4-0.6,0.7h5.6v2.2H7.4C7.5,17.3,7.7,16.5,8,15.7z"/>
</g>
</svg>
