<?xml version="1.0" encoding="utf-8"?>
<!-- Generator: Adobe Illustrator 25.2.1, SVG Export Plug-In . SVG Version: 6.00 Build 0)  -->
<svg version="1.1" id="Capa_1" xmlns="http://www.w3.org/2000/svg" xmlns:xlink="http://www.w3.org/1999/xlink" x="0px" y="0px"
	 viewBox="0 0 23.6 23.6" style="enable-background:new 0 0 23.6 23.6;" xml:space="preserve">
<style type="text/css">
	.st0{fill:#592e3a;}
	.st1{fill:none;}
	.st2{enable-background:new    ;}
	.st3{fill:#FFFFFF;}
</style>
<circle class="st0" cx="11.8" cy="11.8" r="11.8"/>
<rect x="6.2" y="5.2" class="st1" width="11.2" height="13.3"/>
<g class="st2">
	<path class="st3" d="M9.9,14.3c0,0.5,0.1,0.9,0.2,1.3c0.3,0.6,0.9,0.9,1.7,0.9c0.5,0,0.9-0.2,1.3-0.5c0.4-0.3,0.5-0.8,0.5-1.5
		c0-0.8-0.3-1.4-1-1.7c-0.4-0.2-1-0.2-1.8-0.2v-1.8c0.8,0,1.4-0.1,1.7-0.2c0.6-0.2,0.8-0.7,0.8-1.5c0-0.5-0.1-0.9-0.4-1.2
		c-0.3-0.3-0.7-0.5-1.2-0.5c-0.6,0-1,0.2-1.3,0.6C10.1,8.3,10,8.8,10,9.5H7.6c0-0.6,0.1-1.2,0.3-1.8c0.2-0.5,0.5-1,1-1.4
		C9.3,6,9.6,5.8,10.1,5.6s1-0.2,1.7-0.2c1.2,0,2.2,0.3,2.9,0.9c0.7,0.6,1.1,1.5,1.1,2.5c0,0.8-0.2,1.4-0.7,1.9
		c-0.3,0.3-0.6,0.5-0.9,0.7c0.2,0,0.6,0.2,1,0.6c0.6,0.6,1,1.4,1,2.4c0,1.1-0.4,2-1.1,2.8c-0.7,0.8-1.9,1.2-3.3,1.2
		c-1.8,0-3.1-0.6-3.8-1.8c-0.4-0.6-0.6-1.4-0.6-2.5H9.9z"/>
</g>
</svg>
