<?xml version="1.0" encoding="utf-8"?>
<!-- Generator: Adobe Illustrator 25.2.1, SVG Export Plug-In . SVG Version: 6.00 Build 0)  -->
<svg version="1.1" id="Capa_1" xmlns="http://www.w3.org/2000/svg" xmlns:xlink="http://www.w3.org/1999/xlink" x="0px" y="0px"
	 viewBox="0 0 23.6 23.6" style="enable-background:new 0 0 23.6 23.6;" xml:space="preserve">
<style type="text/css">
	.st0{fill:#592e3a;}
	.st1{fill:none;}
	.st2{enable-background:new    ;}
	.st3{fill:#FFFFFF;}
</style>
<circle class="st0" cx="11.8" cy="11.8" r="11.8"/>
<rect x="6.2" y="5.1" class="st1" width="11.2" height="13.3"/>
<g class="st2">
	<path class="st3" d="M9.9,14.5c0.1,0.5,0.3,1,0.6,1.3c0.3,0.3,0.7,0.4,1.2,0.4c0.6,0,1.1-0.2,1.4-0.7c0.3-0.4,0.5-1,0.5-1.6
		c0-0.7-0.2-1.2-0.5-1.6c-0.3-0.4-0.8-0.7-1.4-0.7c-0.3,0-0.6,0-0.8,0.1c-0.4,0.1-0.7,0.4-0.9,0.8l-2.2-0.1l0.9-7h7v2.1h-5.2
		l-0.5,2.8c0.4-0.3,0.7-0.4,0.9-0.5c0.4-0.1,0.8-0.2,1.3-0.2c1.1,0,2,0.4,2.8,1.1s1.2,1.7,1.2,3.1c0,1.2-0.4,2.2-1.1,3.2
		c-0.8,0.9-1.9,1.4-3.4,1.4c-1.2,0-2.2-0.3-3-1c-0.8-0.7-1.2-1.6-1.3-2.8H9.9z"/>
</g>
</svg>
