<?xml version="1.0" encoding="utf-8"?>
<!-- Generator: Adobe Illustrator 25.2.1, SVG Export Plug-In . SVG Version: 6.00 Build 0)  -->
<svg version="1.1" id="Capa_1" xmlns="http://www.w3.org/2000/svg" xmlns:xlink="http://www.w3.org/1999/xlink" x="0px" y="0px"
	 viewBox="0 0 23.6 23.6" style="enable-background:new 0 0 23.6 23.6;" xml:space="preserve">
<style type="text/css">
	.st0{fill:#592e3a;}
	.st1{fill:none;}
	.st2{enable-background:new    ;}
	.st3{fill:#FFFFFF;}
</style>
<circle class="st0" cx="11.8" cy="11.8" r="11.8"/>
<rect x="6.2" y="5.1" class="st1" width="11.2" height="13.3"/>
<g class="st2">
	<path class="st3" d="M13.4,8.5c0-0.2-0.1-0.4-0.2-0.7c-0.3-0.4-0.7-0.6-1.2-0.6c-0.8,0-1.4,0.5-1.7,1.4c-0.2,0.5-0.3,1.2-0.4,2.2
		c0.3-0.4,0.7-0.6,1.1-0.8s0.9-0.3,1.4-0.3c1.1,0,2.1,0.4,2.8,1.2s1.1,1.7,1.1,2.9c0,1.2-0.4,2.2-1.1,3.1s-1.8,1.4-3.3,1.4
		c-1.6,0-2.8-0.7-3.6-2c-0.6-1-0.9-2.4-0.9-4.1c0-1,0-1.8,0.1-2.4C7.7,8.9,8,8,8.4,7.2c0.4-0.6,0.8-1.1,1.4-1.5s1.3-0.6,2.1-0.6
		c1.2,0,2.1,0.3,2.8,0.9c0.7,0.6,1.1,1.4,1.2,2.4H13.4z M10.5,15.7c0.4,0.4,0.8,0.7,1.4,0.7c0.6,0,1-0.2,1.3-0.6
		c0.3-0.4,0.5-1,0.5-1.6c0-0.7-0.2-1.3-0.5-1.7c-0.4-0.4-0.8-0.6-1.3-0.6c-0.4,0-0.8,0.1-1.1,0.4c-0.5,0.4-0.7,1-0.7,1.8
		C9.9,14.7,10.1,15.3,10.5,15.7z"/>
</g>
</svg>
