<?xml version="1.0" encoding="utf-8"?>
<!-- Generator: Adobe Illustrator 25.2.1, SVG Export Plug-In . SVG Version: 6.00 Build 0)  -->
<svg version="1.1" id="Capa_1" xmlns="http://www.w3.org/2000/svg" xmlns:xlink="http://www.w3.org/1999/xlink" x="0px" y="0px"
	 viewBox="0 0 23.6 23.6" style="enable-background:new 0 0 23.6 23.6;" xml:space="preserve">
<style type="text/css">
	.st0{fill:#592e3a;}
	.st1{fill:none;}
	.st2{enable-background:new    ;}
	.st3{fill:#FFFFFF;}
</style>
<circle class="st0" cx="11.8" cy="11.8" r="11.8"/>
<rect x="6.2" y="5.1" class="st1" width="11.2" height="13.3"/>
<g class="st2">
	<path class="st3" d="M7.9,12.6c0.3-0.6,0.8-1,1.4-1.3c-0.6-0.4-1-0.9-1.2-1.3C7.9,9.4,7.8,9,7.8,8.6c0-0.9,0.3-1.7,1-2.4
		c0.7-0.7,1.7-1,3-1s2.3,0.3,3,1c0.7,0.7,1,1.4,1,2.4c0,0.4-0.1,0.9-0.3,1.3c-0.2,0.5-0.6,0.9-1.2,1.2c0.6,0.4,1.1,0.8,1.4,1.4
		c0.3,0.6,0.5,1.2,0.5,1.9c0,1.1-0.4,2-1.2,2.7c-0.8,0.8-1.9,1.1-3.3,1.1S9.2,18,8.5,17.2c-0.7-0.8-1.1-1.7-1.1-2.7
		C7.4,13.8,7.5,13.1,7.9,12.6z M10.5,15.8c0.3,0.3,0.8,0.5,1.3,0.5s1-0.2,1.3-0.5c0.3-0.3,0.5-0.8,0.5-1.5c0-0.7-0.2-1.1-0.5-1.5
		c-0.3-0.3-0.8-0.5-1.3-0.5s-1,0.2-1.3,0.5c-0.3,0.3-0.5,0.8-0.5,1.5C10,15,10.1,15.4,10.5,15.8z M10.6,10c0.3,0.3,0.7,0.4,1.2,0.4
		c0.5,0,0.9-0.1,1.2-0.4c0.3-0.3,0.4-0.7,0.4-1.1c0-0.5-0.1-0.9-0.4-1.2c-0.3-0.3-0.7-0.4-1.2-0.4c-0.5,0-0.9,0.1-1.2,0.4
		c-0.3,0.3-0.4,0.7-0.4,1.2C10.2,9.3,10.3,9.7,10.6,10z"/>
</g>
</svg>
